<?xml version="1.0" encoding="UTF-8"?><svg id="b" xmlns="http://www.w3.org/2000/svg" width="217.2" height="203.94" xmlns:xlink="http://www.w3.org/1999/xlink" viewBox="0 0 217.2 203.94"><defs><clipPath id="d"><rect x="133.8" y="114.94" width="29.7" height="34.7" transform="translate(9.21 274.25) rotate(-87.18)" style="fill:none;"/></clipPath></defs><g id="c"><g><polygon points="73.49 156.4 75.29 155.1 75.89 160 74.39 162.6 73.49 156.4" style="fill:#ffff1a;"/><path d="M74.99,155.9l.5,4-.8,1.4-.7-4.7,1-.7m.7-1.6l-1.2,.9-1,.7-.4,.3,.1,.6,.7,4.7,.4,2.5,1.3-2.2,.8-1.4,.2-.3v-.3l-.5-4-.4-1.5h0Z" style="fill:#1a1a1a;"/></g><g><polygon points="82.19 148 84.29 148.1 83.69 152.1 81.59 153.2 82.19 148" style="fill:#ffad1d;"/><path d="M82.59,148.5h1.2l-.5,3.3-1.2,.6,.5-3.9m-.8-.9l-.1,.8-.5,3.9-.2,1.7,1.5-.8,1.2-.6,.4-.2,.1-.4,.5-3.3,.2-1h-2.2l-.9-.1h0Z" style="fill:#1a1a1a;"/></g><g><polygon points="60.59 169.2 65.39 168 68.19 169.1 62.19 170.9 60.59 169.2" style="fill:#ffff1a;"/><path d="M65.29,168.4l1.5,.6-4.5,1.3-.9-.9,3.9-1m.1-.9l-.3,.1-3.9,1-1.5,.4,1,1.1,.9,.9,.4,.4,.5-.1,4.5-1.3,2.4-.7-2.4-1-1.5-.6-.1-.2h0Z" style="fill:#1a1a1a;"/></g><g><polygon points="62.89 167 66.59 166.6 68.29 168.3 63.49 168.9 62.89 167" style="fill:#ffad1d;"/><path d="M66.49,167.1l.8,.8-3.5,.5-.3-1,3-.3m.3-.9h-.4l-3,.3-1.1,.1,.3,1.1,.3,1,.2,.7,.7-.1,3.5-.5,1.8-.2-1.3-1.3-.8-.8-.2-.3h0Z" style="fill:#1a1a1a;"/></g><g><polygon points="54.09 164.2 59.09 164 61.59 165.7 55.29 166.1 54.09 164.2" style="fill:#ffff1a;"/><path d="M58.89,164.4l1.3,.9-4.7,.3-.6-1.1,4-.1m.3-.9h-.3l-4,.1-1.5,.1,.8,1.3,.6,1.1,.3,.5h.5l4.7-.3,2.5-.2-2.1-1.5-1.3-.9-.2-.2h0Z" style="fill:#1a1a1a;"/></g><g><polygon points="69.59 167.1 71.19 165.4 74.19 165.9 73.69 167.6 69.59 167.1" style="fill:#ffff1a;"/><path d="M71.29,165.9l2.3,.4-.3,.9-2.9-.4,.9-.9m-.3-1l-.3,.4-.8,.9-1.1,1.3,1.7,.2,2.9,.4,.8,.1,.2-.7,.3-.9,.3-1-1-.2-2.3-.4-.7-.1h0Z" style="fill:#1a1a1a;"/></g><g><polygon points="69.19 159.5 70.79 158.6 72.59 161 71.59 162.4 69.19 159.5" style="fill:#ffad1d;"/><path d="M70.69,159.2l1.3,1.8-.5,.7-1.7-2.1,.9-.4m.3-1.2l-.7,.4-.8,.4-1,.5,.7,.9,1.7,2.1,.8,.9,.7-1,.5-.7,.3-.5-.4-.5-1.3-1.8-.5-.7h0Z" style="fill:#1a1a1a;"/></g><g><polygon points="83.29 155.9 85.19 156.1 85.29 159 83.69 159.7 83.29 155.9" style="fill:#ffff1a;"/><path d="M83.79,156.4l.9,.1,.1,2.2-.8,.3-.2-2.6m-1-1l.1,1.1,.3,2.7,.1,1.2,1.1-.5,.8-.3,.6-.2v-.6l-.1-2.2v-.8l-.8-.1-.9-.1-1.2-.2h0Z" style="fill:#1a1a1a;"/></g><g><polygon points="195.99 110 196.59 107 199.39 112.6 197.99 114.4 195.99 110" style="fill:#ffff1a;"/><path d="M196.79,108.4l2.1,4.2-.8,1-1.7-3.7,.4-1.5m-.3-2.7l-.5,2.5-.3,1.6-.1,.3,.1,.3,1.7,3.7,.6,1.4,.9-1.2,.8-1,.3-.4-.2-.5-2.1-4.2-1.2-2.5h0Z" style="fill:#1a1a1a;"/></g><g><polygon points="190.99 119.9 192.69 118.2 193.69 123.3 191.59 123.9 190.99 119.9" style="fill:#ffad1d;"/><path d="M192.39,119.1l.8,3.9-1.2,.4-.5-3.3,.9-1m.6-1.9l-1.2,1.2-.9,.9-.3,.3,.1,.4,.5,3.3,.2,1,1-.3,1.2-.4,.8-.2-.1-.8-.8-3.9-.5-1.5h0Z" style="fill:#1a1a1a;"/></g><g><polygon points="200.59 98.9 205.79 95.4 207.79 96.5 203.59 99.2 200.59 98.9" style="fill:#ffff1a;"/><path d="M205.79,95.9l1.1,.6-3.4,2.2-1.6-.1,3.9-2.7m0-1l-.5,.3-3.9,2.6-2.1,1.4,2.6,.2,1.6,.1h.3l.2-.2,3.4-2.2,1.3-.8-1.3-.7-1.1-.6-.5-.1h0Z" style="fill:#1a1a1a;"/></g><g><polygon points="200.69 99.8 205.09 97.7 206.29 99.3 202.79 100.8 200.69 99.8" style="fill:#ffad1d;"/><path d="M204.99,98.2l.6,.9-2.8,1.2-1.1-.5,3.3-1.6m.2-1.1l-.7,.3-3.2,1.5-1.6,.8,1.6,.8,1.1,.5,.4,.2,.4-.2,2.8-1.2,1-.4-.6-.9-.6-.9-.6-.5h0Z" style="fill:#1a1a1a;"/></g><g><polygon points="207.89 100.1 213.79 97.8 215.49 99.3 210.79 101 207.89 100.1" style="fill:#ffff1a;"/><path d="M213.59,98.3l.9,.8-3.8,1.4-1.5-.5,4.4-1.7m.2-1l-.5,.2-4.4,1.7-2.4,.9,2.4,.8,1.5,.5,.3,.1,.3-.1,3.8-1.4,1.4-.5-1.1-1-.9-.8-.4-.4h0Z" style="fill:#1a1a1a;"/></g><g><polygon points="195.79 102 199.79 101.3 198.89 103.4 195.79 103.8 195.79 102" style="fill:#ffff1a;"/><path d="M199.09,101.9l-.5,1.1-2.3,.3v-.9l2.8-.5m1.5-1.2l-1.7,.3-2.9,.5-.8,.1v2.7l1-.1,2.3-.3,.5-.1,.2-.4,.5-1.1,.9-1.6h0Z" style="fill:#1a1a1a;"/></g><g><polygon points="198.89 108 199.39 106.3 202.59 108.4 201.29 109.7 198.89 108" style="fill:#ffad1d;"/><path d="M199.59,107l2.2,1.4-.7,.7-1.8-1.3,.3-.8m-.5-1.4l-.3,1.2-.2,.8-.2,.6,.5,.4,1.8,1.3,.6,.4,.5-.5,.7-.7,.8-.8-.9-.6-2.2-1.4-1.1-.7h0Z" style="fill:#1a1a1a;"/></g><g><polygon points="187.39 113.8 188.69 112.6 190.29 116.1 188.39 116.5 187.39 113.8" style="fill:#ffff1a;"/><path d="M188.59,113.4l1.1,2.4-.9,.2-.8-2.1,.6-.5m.3-1.5l-.9,.8-.7,.6-.5,.4,.2,.6,.8,2.1,.3,.7,.7-.2,.9-.2,1.1-.2-.4-1-1.1-2.4-.4-1.2h0Z" style="fill:#1a1a1a;"/></g><path d="M143.99,76.3h13.2c3.2,0,5.8,2.6,5.8,5.8v22.4c0,3.2-2.6,5.8-5.8,5.8h-13.2c-3.2,0-5.8-2.6-5.8-5.8v-22.4c0-3.2,2.6-5.8,5.8-5.8Z" style="fill:#999; stroke:#1a1a1a; stroke-miterlimit:10; stroke-width:.92px;"/><path d="M75.59,165.1c9.9,5.1,24.6,7.9,24.6,7.9l-1,1.6s-14.2-2.5-23.2-7.2c-.2-.5-.4-1.8-.4-2.3h0Z" style="fill:#fa0f0a; stroke:#1a1a1a; stroke-miterlimit:10; stroke-width:1.08px;"/><polygon points="75.99 167.4 73.49 166.4 73.29 164.4 75.69 165.3 75.99 167.4" style="fill:#999; stroke:#1a1a1a; stroke-miterlimit:10; stroke-width:1.08px;"/><path d="M82.99,161.3c7.2,11.9,15.8,12.6,15.8,12.6l1.5-1.2s-8.7-1.5-14.8-11.3c-.7-.2-2-.2-2.5-.1Z" style="fill:#fa0f0a; stroke:#1a1a1a; stroke-miterlimit:10; stroke-width:1.08px;"/><polygon points="85.29 161.3 83.99 159 81.99 159.1 83.19 161.3 85.29 161.3" style="fill:#999; stroke:#1a1a1a; stroke-miterlimit:10; stroke-width:1.08px;"/><polygon points="117.59 163.9 115.09 168.6 108.39 167.8 113.49 161.3 117.59 163.9" style="fill:#4d4d4d; stroke:#1a1a1a; stroke-linecap:round; stroke-linejoin:round; stroke-width:.92px;"/><polygon points="113.49 161.3 117.59 163.9 121.89 157.7 117.19 150 113.49 161.3" style="fill:#333; stroke:#1a1a1a; stroke-miterlimit:10; stroke-width:.92px;"/><polygon points="107.79 160.2 99.69 170.9 105.49 171.4 112.99 161.3 107.79 160.2" style="fill:#4d4d4d; stroke:#1a1a1a; stroke-miterlimit:10; stroke-width:.92px;"/><polygon points="118.99 129.9 107.79 160.2 113.39 161.4 125.59 138.8 118.99 129.9" style="fill:#4d4d4d; stroke:#1a1a1a; stroke-miterlimit:10; stroke-width:.92px;"/><polygon points="181.39 110.3 208.69 160.2 204.29 156.9 180.69 114.9 181.39 110.3" style="fill:#999; stroke:#1a1a1a; stroke-linecap:round; stroke-linejoin:round; stroke-width:.92px;"/><polygon points="196.19 157.4 194.59 179.3 202.99 180.3 203.69 156.9 196.19 157.4" style="fill:#4d4d4d; stroke:#1a1a1a; stroke-linecap:round; stroke-linejoin:round; stroke-width:.92px;"/><polygon points="178.79 125.3 196.19 157.7 203.99 156.6 179.49 111.9 178.79 125.3" style="fill:#4d4d4d; stroke:#1a1a1a; stroke-miterlimit:10; stroke-width:.92px;"/><polygon points="156.69 170 168.59 170.4 166.59 175.3 156.19 173.1 156.69 170" style="fill:#333; stroke:#1a1a1a; stroke-miterlimit:10; stroke-width:.92px;"/><path d="M156.19,179c.5,.2,9.9,3.6,9.9,3.6l3.4-8.1-13.3-1.8v6.3h0Z" style="fill:#4d4d4d; stroke:#1a1a1a; stroke-miterlimit:10; stroke-width:.92px;"/><polygon points="100.49 168.6 136.69 172 137.39 179.5 103.09 178.5 100.49 168.6" style="fill:#999; stroke:#1a1a1a; stroke-miterlimit:10; stroke-width:.92px;"/><polygon points="103.09 166.5 135.89 169.1 135.89 172 102.49 169.2 103.09 166.5" style="fill:#333; stroke:#1a1a1a; stroke-miterlimit:10; stroke-width:.92px;"/><path d="M135.89,162.3h22.4v15.1c0,2.3-1.9,4.1-4.1,4.1h-14.1c-2.3,0-4.1-1.9-4.1-4.1l-.1-15.1h0Z" style="fill:#999; stroke:#1a1a1a; stroke-miterlimit:10; stroke-width:.92px;"/><polygon points="135.59 165.7 137.19 160 158.39 161.3 157.99 169.9 135.59 165.7" style="fill:#4d4d4d;"/><path d="M135.89,162.3h22.4v15.1c0,2.3-1.9,4.1-4.1,4.1h-14.1c-2.3,0-4.1-1.9-4.1-4.1l-.1-15.1h0Z" style="fill:none; stroke:#1a1a1a; stroke-miterlimit:10; stroke-width:.92px;"/><path d="M94.19,164.5l6.3-.8c1.5-.2,2.9,.9,3.1,2.4l1.3,10.6c.2,1.5-.9,2.9-2.4,3.1l-6.3,.8c-1.5,.2-2.9-.9-3.1-2.4l-1.3-10.6c-.2-1.5,.9-2.9,2.4-3.1Z" style="fill:#999; stroke:#1a1a1a; stroke-miterlimit:10; stroke-width:.92px;"/><path d="M120.19,103.7l60.9,3c.9,0,1.6,.8,1.5,1.7l-2.7,55.5c0,.9-.8,1.6-1.7,1.5l-60.9-3c-.9,0-1.6-.8-1.5-1.7l2.7-55.5c.1-.9,.9-1.6,1.7-1.5Z" style="fill:#999; stroke:#1a1a1a; stroke-miterlimit:10; stroke-width:.92px;"/><polygon points="142.09 104.8 182.29 117.7 182.69 108.4 142.09 104.8" style="fill:#4d4d4d;"/><path d="M120.19,103.7l60.9,3c.9,0,1.6,.8,1.5,1.7l-2.7,55.5c0,.9-.8,1.6-1.7,1.5l-60.9-3c-.9,0-1.6-.8-1.5-1.7l2.7-55.5c.1-.9,.9-1.6,1.7-1.5Z" style="fill:none; stroke:#1a1a1a; stroke-miterlimit:10; stroke-width:.92px;"/><line x1="115.89" y1="158.6" x2="180.09" y2="161.7" style="fill:none; stroke:#1a1a1a; stroke-linecap:round; stroke-linejoin:round; stroke-width:.92px;"/><rect x="133.31" y="114.33" width="30.7" height="35.9" transform="translate(9.22 274.26) rotate(-87.18)" style="fill:#010309; stroke:#1a1a1a; stroke-linecap:round; stroke-linejoin:round; stroke-width:.92px;"/><rect x="133.8" y="114.94" width="29.7" height="34.7" transform="translate(9.21 274.25) rotate(-87.18)" style="fill:#010309; stroke:#666; stroke-linecap:round; stroke-linejoin:round; stroke-width:.45px;"/><g><rect x="133.8" y="114.94" width="29.7" height="34.7" transform="translate(9.21 274.25) rotate(-87.18)" style="fill:#010309;"/><g style="clip-path:url(#d);"><g><line x1="160.79" y1="134.3" x2="160.09" y2="149.4" style="fill:none; stroke:#4d4d4d; stroke-miterlimit:10; stroke-width:.92px;"/><polyline points="148.29 131.8 147.89 143.6 141.29 143.3 140.99 148.5" style="fill:none; stroke:#4d4d4d; stroke-miterlimit:10; stroke-width:.92px;"/><polyline points="148.09 129.2 136.59 128.4 136.39 136.6 129.19 136.1" style="fill:none; stroke:#4d4d4d; stroke-miterlimit:10; stroke-width:.92px;"/><g><g><path d="M139.89,125.4c-.1-.2-.3-.4-.6-.4-.4,0-.7,.3-.7,.6s.3,.7,.6,.7,.6-.2,.7-.5l9.3,.6v-.5l-9.3-.5h0Zm-.6,.6c-.2,0-.3-.2-.3-.3s.2-.3,.3-.3,.3,.2,.3,.3-.2,.3-.3,.3Z" style="fill:#4d4d4d; stroke:#4d4d4d; stroke-miterlimit:10; stroke-width:.46px;"/><path d="M142.69,131.9c-.1-.2-.3-.4-.6-.4-.4,0-.7,.3-.7,.6s.3,.7,.6,.7,.6-.2,.7-.5l9.3,.6v-.5l-9.3-.5h0Zm-.6,.6c-.2,0-.3-.2-.3-.3s.2-.3,.3-.3,.3,.2,.3,.3-.2,.3-.3,.3Z" style="fill:#4d4d4d; stroke:#4d4d4d; stroke-miterlimit:10; stroke-width:.46px;"/><path d="M153.29,111.9c.2-.1,.4-.3,.4-.6,0-.4-.3-.7-.6-.7s-.7,.3-.7,.6,.2,.6,.5,.7l-.6,9.3h.5l.5-9.3h0Zm-.6-.6c0-.2,.2-.3,.3-.3s.3,.2,.3,.3-.2,.3-.3,.3-.3-.2-.3-.3Z" style="fill:#4d4d4d; stroke:#4d4d4d; stroke-miterlimit:10; stroke-width:.46px;"/><path d="M150.89,139.3c-.2,.1-.4,.3-.4,.6,0,.4,.3,.7,.6,.7s.7-.3,.7-.6-.2-.6-.5-.7l.6-9.3h-.5l-.5,9.3h0Zm.5,.7c0,.2-.2,.3-.3,.3s-.3-.2-.3-.3,.2-.3,.3-.3,.3,.1,.3,.3Z" style="fill:#4d4d4d; stroke:#4d4d4d; stroke-miterlimit:10; stroke-width:.46px;"/><path d="M156.79,142.3c-.2,.1-.4,.3-.4,.6,0,.4,.3,.7,.6,.7s.7-.3,.7-.6-.2-.6-.5-.7l.6-9.3h-.5l-.5,9.3h0Zm.5,.7c0,.2-.2,.3-.3,.3s-.3-.2-.3-.3,.2-.3,.3-.3,.3,.1,.3,.3Z" style="fill:#4d4d4d; stroke:#4d4d4d; stroke-miterlimit:10; stroke-width:.46px;"/><path d="M149.59,120.1c.2-.1,.4-.3,.4-.6,0-.4-.3-.7-.6-.7s-.7,.3-.7,.6,.2,.6,.5,.7l-.6,9.3h.5l.5-9.3h0Zm-.6-.6c0-.2,.2-.3,.3-.3s.3,.2,.3,.3-.2,.3-.3,.3-.3-.2-.3-.3Z" style="fill:#4d4d4d; stroke:#4d4d4d; stroke-miterlimit:10; stroke-width:.46px;"/><path d="M156.49,115.9c.2-.1,.4-.3,.4-.6,0-.4-.3-.7-.6-.7s-.7,.3-.7,.6,.2,.6,.5,.7l-.7,9.3h.5l.6-9.3h0Zm-.6-.7c0-.2,.2-.3,.3-.3s.3,.2,.3,.3-.2,.3-.3,.3-.3-.1-.3-.3Z" style="fill:#4d4d4d; stroke:#4d4d4d; stroke-miterlimit:10; stroke-width:.46px;"/><path d="M160.69,113.8c.2-.1,.4-.3,.4-.6,0-.4-.3-.7-.6-.7s-.7,.3-.7,.6,.2,.6,.5,.7l-.6,9.3h.5l.5-9.3h0Zm-.6-.7c0-.2,.2-.3,.3-.3s.3,.2,.3,.3-.2,.3-.3,.3-.3-.1-.3-.3Z" style="fill:#4d4d4d; stroke:#4d4d4d; stroke-miterlimit:10; stroke-width:.46px;"/><path d="M167.59,125.6c.1,.2,.3,.4,.6,.4,.4,0,.7-.3,.7-.6s-.3-.7-.6-.7-.6,.2-.7,.5l-9.3-.6v.5l9.3,.5h0Zm.6-.6c.2,0,.3,.2,.3,.3s-.2,.3-.3,.3-.3-.2-.3-.3,.2-.3,.3-.3Z" style="fill:#4d4d4d; stroke:#4d4d4d; stroke-miterlimit:10; stroke-width:.46px;"/><path d="M166.49,131c.1,.2,.3,.4,.6,.4,.4,0,.7-.3,.7-.6s-.3-.7-.6-.7-.6,.2-.7,.5l-9.3-.6v.5l9.3,.5h0Zm.6-.6c.2,0,.3,.2,.3,.3s-.2,.3-.3,.3-.3-.2-.3-.3,.2-.3,.3-.3Z" style="fill:#4d4d4d; stroke:#4d4d4d; stroke-miterlimit:10; stroke-width:.46px;"/><path d="M168.09,135.5c.1,.2,.3,.4,.6,.4,.4,0,.7-.3,.7-.6s-.3-.7-.6-.7-.6,.2-.7,.5l-9.3-.6v.5l9.3,.5h0Zm.6-.5c.2,0,.3,.2,.3,.3s-.2,.3-.3,.3-.3-.2-.3-.3,.1-.3,.3-.3Z" style="fill:#4d4d4d; stroke:#4d4d4d; stroke-miterlimit:10; stroke-width:.46px;"/></g><g><circle cx="155.29" cy="129" r="9.2" style="fill:#010309; stroke:#666; stroke-linecap:round; stroke-linejoin:round; stroke-width:.35px;"/><path d="M154.59,138.3c-5.1-.3-9.1-4.8-8.7-9.9,.3-5.2,4.8-9.1,9.9-8.7s9.1,4.8,8.7,9.9c-.2,5.2-4.7,9.1-9.9,8.7Zm1.2-18.3c-4.9-.3-9.2,3.4-9.5,8.4-.3,4.9,3.4,9.2,8.4,9.5,4.9,.3,9.2-3.4,9.5-8.4,.3-4.9-3.4-9.1-8.4-9.5Z" style="fill:#4d4d4d; stroke:#4d4d4d; stroke-miterlimit:10; stroke-width:.35px;"/></g><g><g><g><path d="M151.69,126.7l-.3,4.8-.1,.9-.1,1.1,7.9,.6,.1-1.1,.1-.9,.3-4.8-7.9-.6Zm6.8,6.6l-6.6-.4v-.4l.1-.9,.3-4.1,6.6,.4-.3,5h0l-.1,.4Z" style="fill:#fa0f0a;"/><path d="M153.89,123.9c.3-.2,.6-.3,1-.2l2,.1c.4,0,.7,.2,1,.4,.2,.2,.4,.5,.3,.9l-.1,1.6,.7,.1,.1-1.6c0-.4,0-.8-.2-1.1s-.4-.6-.7-.8-.7-.3-1.1-.3l-2.1-.1c-.4,0-.8,0-1.1,.2s-.6,.4-.8,.7-.3,.6-.3,1l.7,.1c.1-.6,.3-.9,.6-1h0Z" style="fill:#fa0f0a;"/></g><rect x="152.47" y="126.76" width="5.9" height="7.1" transform="translate(14.79 276.46) rotate(-86.08)" style="fill:#fa0f0a;"/></g><polygon points="156.99 129.6 155.89 129.8 155.89 128.6 155.19 128.6 154.99 129.7 153.99 129.4 153.79 130 154.69 130.5 153.99 131.5 154.59 131.9 155.39 131 156.09 132 156.69 131.7 156.09 130.6 157.09 130.2 156.99 129.6"/></g></g></g></g><rect x="133.8" y="114.94" width="29.7" height="34.7" transform="translate(9.21 274.25) rotate(-87.18)" style="fill:none; stroke:#02040c; stroke-linecap:round; stroke-linejoin:round; stroke-width:.45px;"/></g><g><path d="M131.59,116.5l-35.7-10.6c-.2-.1-.3,.1-.3,.2l-1.3,40.2,36.4,.1,.9-29.9h0Z" style="fill:#999; stroke:#1a1a1a; stroke-miterlimit:10; stroke-width:.92px;"/><polygon points="95.59 105.6 92.89 111.5 91.59 149.7 94.19 146.3 95.59 105.6" style="fill:#4d4d4d; stroke:#1a1a1a; stroke-linecap:round; stroke-linejoin:round; stroke-width:.92px;"/><path d="M91.89,149.6l38.7-3.2-36.2,.1-2.6,3s0,.1,.1,.1Z" style="fill:#4d4d4d; stroke:#1a1a1a; stroke-linecap:round; stroke-linejoin:round; stroke-width:.92px;"/></g><polygon points="177.49 203.4 160.29 199.3 164.99 161.3 171.29 144.6 183.49 147.7 195.09 150.6 191.99 168.1 177.49 203.4" style="fill:#999; stroke:#1a1a1a; stroke-miterlimit:10; stroke-width:.92px;"/><polygon points="206.89 195.4 200.09 199 203.49 201.2 210.49 198 206.89 195.4" style="fill:#999; stroke:#1a1a1a; stroke-linecap:round; stroke-linejoin:round; stroke-width:.92px;"/><polygon points="200.09 199 200.59 191.2 206.89 188.1 206.89 195.4 200.09 199" style="fill:#333; stroke:#1a1a1a; stroke-linecap:round; stroke-linejoin:round; stroke-width:.92px;"/><polygon points="204.29 156.9 208.69 160.2 209.99 175.6 202.99 180.3 204.29 156.9" style="fill:#999; stroke:#1a1a1a; stroke-miterlimit:10; stroke-width:.92px;"/><polygon points="193.29 188.1 197.99 189.1 193.29 195.1 188.69 194.8 193.29 188.1" style="fill:#999; stroke:#1a1a1a; stroke-linecap:round; stroke-linejoin:round; stroke-width:.92px;"/><polygon points="193.29 188.1 192.29 178.7 199.59 172.5 206.89 174.6 196.49 181.6 197.99 189.1 193.29 188.1" style="fill:#999; stroke:#1a1a1a; stroke-linecap:round; stroke-linejoin:round; stroke-width:.92px;"/><polygon points="194.89 172.5 190.39 177.7 188.09 185.5 188.69 194.8 193.29 188.1 192.29 178.7 200.09 172.5 194.89 172.5" style="fill:#4d4d4d; stroke:#1a1a1a; stroke-linecap:round; stroke-linejoin:round; stroke-width:.92px;"/><polygon points="206.89 195.4 206.89 174.6 209.99 175.6 210.49 198 206.89 195.4" style="fill:#999; stroke:#1a1a1a; stroke-linecap:round; stroke-linejoin:round; stroke-width:.92px;"/><polygon points="200.59 191.2 201.69 182.4 197.99 180.8 206.89 174.6 206.89 188.1 200.59 191.2" style="fill:#333; stroke:#1a1a1a; stroke-linecap:round; stroke-linejoin:round; stroke-width:.92px;"/><circle cx="187.09" cy="167.3" r="1.8" style="fill:#4d4d4d; stroke:#1a1a1a; stroke-miterlimit:10; stroke-width:.92px;"/><line x1="186.39" y1="168" x2="187.89" y2="166.5" style="fill:none; stroke:#1a1a1a; stroke-miterlimit:10; stroke-width:.92px;"/><line x1="186.39" y1="166.6" x2="187.99" y2="167.9" style="fill:none; stroke:#1a1a1a; stroke-miterlimit:10; stroke-width:.92px;"/><circle cx="168.89" cy="162.6" r="1.8" style="fill:#4d4d4d; stroke:#1a1a1a; stroke-miterlimit:10; stroke-width:.92px;"/><line x1="168.19" y1="163.3" x2="169.69" y2="161.8" style="fill:none; stroke:#1a1a1a; stroke-miterlimit:10; stroke-width:.92px;"/><line x1="168.19" y1="161.9" x2="169.79" y2="163.2" style="fill:none; stroke:#1a1a1a; stroke-miterlimit:10; stroke-width:.92px;"/><circle cx="170.49" cy="195.4" r="1.8" style="fill:#4d4d4d; stroke:#1a1a1a; stroke-miterlimit:10; stroke-width:.92px;"/><line x1="169.79" y1="196.1" x2="171.29" y2="194.6" style="fill:none; stroke:#1a1a1a; stroke-miterlimit:10; stroke-width:.92px;"/><line x1="169.69" y1="194.6" x2="171.29" y2="196" style="fill:none; stroke:#1a1a1a; stroke-miterlimit:10; stroke-width:.92px;"/><circle cx="97.69" cy="168.3" r="1.8" style="fill:#4d4d4d; stroke:#1a1a1a; stroke-miterlimit:10; stroke-width:.92px;"/><line x1="96.99" y1="169" x2="98.49" y2="167.5" style="fill:none; stroke:#1a1a1a; stroke-miterlimit:10; stroke-width:.92px;"/><line x1="96.89" y1="167.6" x2="98.49" y2="169" style="fill:none; stroke:#1a1a1a; stroke-miterlimit:10; stroke-width:.92px;"/><polygon points="195.89 175.9 200.09 172.5 209.99 175.6 209.99 186.5 197.59 180.8 195.89 175.9" style="fill:#999; stroke:#1a1a1a; stroke-miterlimit:10; stroke-width:.92px;"/><circle cx="206.59" cy="179.5" r="1" style="fill:#4d4d4d; stroke:#1a1a1a; stroke-miterlimit:10; stroke-width:.92px;"/><line x1="206.19" y1="179.9" x2="206.99" y2="179.1" style="fill:none; stroke:#1a1a1a; stroke-miterlimit:10; stroke-width:.92px;"/><line x1="206.19" y1="179.1" x2="207.09" y2="179.9" style="fill:none; stroke:#1a1a1a; stroke-miterlimit:10; stroke-width:.92px;"/><path d="M81.59,180.5c-11.4,5.3-28,7.8-28,7.8l1.1,1.9s16-2.2,26.4-7c.3-.7,.5-2.1,.5-2.7Z" style="fill:#fa0f0a; stroke:#1a1a1a; stroke-miterlimit:10; stroke-width:1.21px;"/><polygon points="81.09 183.1 83.99 182.1 84.29 179.8 81.59 180.8 81.09 183.1" style="fill:#999; stroke:#1a1a1a; stroke-miterlimit:10; stroke-width:1.21px;"/><path d="M82.49,176.7c-10,12-19.7,11.4-19.7,11.4l-1.4-1.6s9.9-.2,18.4-10.1c.7-.1,2.2,.1,2.7,.3Z" style="fill:#fa0f0a; stroke:#1a1a1a; stroke-miterlimit:10; stroke-width:1.21px;"/><polygon points="79.79 176.4 81.69 174 83.89 174.4 82.19 176.7 79.79 176.4" style="fill:#999; stroke:#1a1a1a; stroke-miterlimit:10; stroke-width:1.21px;"/><path d="M29.99,181.3c.6-.1,38-7.4,38-7.4l.3,3.6-39.3,7.7,1-3.9h0Z" style="fill:#333; stroke:#1a1a1a; stroke-miterlimit:10; stroke-width:1.12px;"/><polygon points="28.99 185.1 31.29 198.9 70.39 189.5 68.19 177.6 28.99 185.1" style="fill:#999; stroke:#1a1a1a; stroke-miterlimit:10; stroke-width:1.12px;"/><path d="M10.79,150.2l3.1-.9c5.4,.7,14.9,4.9,16.1,10.2l7.2,30.1c.3,1.1,0,2.2-.7,3.1l-5.2,6.1-11.5,2.5-9-51.1h0Z" style="fill:#4d4d4d; stroke:#1a1a1a; stroke-miterlimit:10; stroke-width:1.12px;"/><polygon points="13.89 149.4 .59 152.6 1.99 170.8 17.59 201.8 26.39 199.9 20.39 164.3 13.89 149.4" style="fill:#999; stroke:#1a1a1a; stroke-miterlimit:10; stroke-width:1.12px;"/><circle cx="19.69" cy="195.3" r="1.3" style="fill:#4d4d4d; stroke:#1a1a1a; stroke-miterlimit:10; stroke-width:1.12px;"/><line x1="19.19" y1="195.8" x2="20.19" y2="194.8" style="fill:none; stroke:#1a1a1a; stroke-miterlimit:10; stroke-width:1.12px;"/><line x1="19.09" y1="194.9" x2="20.29" y2="195.7" style="fill:none; stroke:#1a1a1a; stroke-miterlimit:10; stroke-width:1.12px;"/><circle cx="16.09" cy="165.3" r="1.3" style="fill:#4d4d4d; stroke:#1a1a1a; stroke-miterlimit:10; stroke-width:1.12px;"/><line x1="15.69" y1="165.8" x2="16.59" y2="164.7" style="fill:none; stroke:#1a1a1a; stroke-miterlimit:10; stroke-width:1.12px;"/><line x1="15.49" y1="164.8" x2="16.69" y2="165.7" style="fill:none; stroke:#1a1a1a; stroke-miterlimit:10; stroke-width:1.12px;"/><circle cx="5.59" cy="168" r="1.3" style="fill:#4d4d4d; stroke:#1a1a1a; stroke-miterlimit:10; stroke-width:1.12px;"/><line x1="5.09" y1="168.5" x2="6.09" y2="167.4" style="fill:none; stroke:#1a1a1a; stroke-miterlimit:10; stroke-width:1.12px;"/><line x1="4.99" y1="167.5" x2="6.19" y2="168.4" style="fill:none; stroke:#1a1a1a; stroke-miterlimit:10; stroke-width:1.12px;"/><path d="M124.19,105.6c10.9-2.3,25.8-1,25.8-1l-.6-1.8s-14.3-1.4-24.3,.7c-.3,.4-.8,1.7-.9,2.1h0Z" style="fill:#00f750; stroke:#1a1a1a; stroke-miterlimit:10; stroke-width:1.08px;"/><polygon points="125.09 103.5 122.49 103.8 121.79 105.7 124.29 105.4 125.09 103.5" style="fill:#999; stroke:#1a1a1a; stroke-miterlimit:10; stroke-width:1.08px;"/><path d="M130.19,111.3c10.1-9.5,18.6-7.9,18.6-7.9l1.1,1.6s-8.8-.9-17.4,6.9c-.6,0-1.8-.4-2.3-.6h0Z" style="fill:#00f750; stroke:#1a1a1a; stroke-miterlimit:10; stroke-width:1.08px;"/><polygon points="132.49 111.8 130.59 113.8 128.69 113.1 130.39 111.3 132.49 111.8" style="fill:#999; stroke:#1a1a1a; stroke-miterlimit:10; stroke-width:1.08px;"/><path d="M193.59,115.1l-93.8-22.2c-.7-.2-1.2-.9-1-1.6L120.29,1.5c.2-.7,.9-1.2,1.6-1l93.8,22.2c.7,.2,1.2,.9,1,1.6l-21.5,89.8c-.1,.7-.8,1.2-1.6,1h0Z" style="fill:#999; stroke:#1a1a1a; stroke-miterlimit:10; stroke-width:.92px;"/><path d="M189.39,98.3l-77.3-18.3c-1.4-.3-2.3-1.7-1.9-3.1L125.49,12.3c.3-1.4,1.7-2.3,3.1-1.9l77.3,18.3c1.4,.3,2.3,1.7,1.9,3.1l-15.3,64.6c-.3,1.4-1.7,2.2-3.1,1.9h0Z" style="fill:#010309; stroke:#1a1a1a; stroke-miterlimit:10; stroke-width:.92px;"/><path d="M135.09,16.2l61.8,14.6c3.6,.8,5.8,4.4,4.9,8l-11.6,49.2c-.8,3.6-4.4,5.8-8,4.9l-61.8-14.6c-3.6-.8-5.8-4.4-4.9-8l11.6-49.2c.9-3.6,4.5-5.8,8-4.9Z" style="fill:#00f750;"/><line x1="100.59" y1="82.6" x2="197.09" y2="105.4" style="fill:none; stroke:#1a1a1a; stroke-linecap:round; stroke-linejoin:round; stroke-width:.92px;"/><path d="M193.59,115.1l-93.8-22.2c-.7-.2-1.2-.9-1-1.6L120.29,1.5c.2-.7,.9-1.2,1.6-1l93.8,22.2c.7,.2,1.2,.9,1,1.6l-21.5,89.8c-.1,.7-.8,1.2-1.6,1h0Z" style="fill:none; stroke:#1a1a1a; stroke-miterlimit:10; stroke-width:.92px;"/><path d="M130.09,23.6l-4.6-1.1,2.3-9.8,4.6,1.1,9.8,2.3,34.5,8.2-1.7,7.3-34.5-8.2-5-1.2-.6,2.5-4.8-1.1h0Zm24.2,55.7l-.6,2.5-5-1.2-34.5-8.2-1.7,7.3,34.5,8.2,9.8,2.3,4.6,1.1,2.3-9.8-4.6-1.1-4.8-1.1Zm31.9,7.7l-4.9-1.2-.6,2.5-5-1.2-1.7,7.3,9.8,2.3,4.6,1.1,2.3-9.8-4.5-1h0Z" style="fill:#010309;"/><g><polygon points="165.39 70.5 160.49 69.4 155.59 68.2 150.69 67.1 145.79 65.9 140.89 64.8 135.99 63.6 134.89 68.5 139.79 69.6 144.59 70.8 149.49 72 154.39 73.1 159.29 74.3 164.19 75.4 169.09 76.6 173.99 77.8 175.19 72.9 170.29 71.7 165.39 70.5" style="fill:#010309;"/><rect x="130.36" y="52.6" width="5" height="5" transform="translate(48.66 171.71) rotate(-76.69)" style="fill:#010309;"/><polygon points="139.59 59.3 134.69 58.1 133.59 63 135.99 63.6 138.49 64.2 139.59 59.3" style="fill:#010309;"/><rect x="175.67" y="68.48" width="5" height="5" transform="translate(68.08 228.03) rotate(-76.69)" style="fill:#010309;"/></g><rect x="170.8" y="41.98" width="12.6" height="12.6" transform="translate(89.35 209.51) rotate(-76.69)" style="fill:#de0b31;"/><polygon points="138.19 32.5 135.19 44.8 140.19 46 139.59 48.5 149.49 50.8 152.99 36 138.19 32.5" style="fill:#010309;"/><g><polygon points="115.19 108 114.59 105.8 119.39 107 121.29 109.3 115.19 108" style="fill:#ffff1a;"/><path d="M115.19,106.4l3.9,1,1,1.2-4.6-1-.3-1.2m-1.2-1.2l.4,1.4,.3,1.2,.1,.5,.5,.1,4.6,1,2.5,.5-1.6-2-1-1.2-.2-.2-.3-.1-3.9-1-1.4-.2h0Z" style="fill:#1a1a1a;"/></g><g><polygon points="110.49 96.9 111.19 94.9 114.79 96.9 115.09 99.3 110.49 96.9" style="fill:#ffad1d;"/><path d="M111.49,95.5l2.9,1.7,.2,1.3-3.5-1.8,.4-1.2m-.5-1.3l-.4,1-.4,1.2-.3,.8,.7,.4,3.5,1.8,1.5,.8-.2-1.7-.2-1.3-.1-.4-.4-.2-2.9-1.7-.8-.7h0Z" style="fill:#1a1a1a;"/></g><g><polygon points="119.49 119.9 122.39 115.9 125.29 115 121.79 120.2 119.49 119.9" style="fill:#ffff1a;"/><path d="M124.19,115.8l-2.7,3.9-1.2-.2,2.4-3.2,1.5-.5m2.2-1.6l-2.4,.7-1.5,.5-.3,.1-.2,.2-2.4,3.2-.9,1.2,1.5,.2,1.2,.2,.6,.1,.3-.5,2.7-3.9,1.4-2h0Z" style="fill:#1a1a1a;"/></g><g><polygon points="120.69 115.7 123.39 113 125.69 113.2 122.39 116.8 120.69 115.7" style="fill:#ffad1d;"/><path d="M123.49,113.5l1.2,.1-2.4,2.6-.9-.6,2.1-2.1m-.3-1l-.3,.3-2.1,2.1-.8,.8,.9,.6,.9,.6,.6,.4,.5-.6,2.4-2.6,1.2-1.3-1.8-.2-1.2-.1h-.3Z" style="fill:#1a1a1a;"/></g><g><polygon points="111.29 120.1 114.99 116.8 118.09 116.6 113.49 120.9 111.29 120.1" style="fill:#ffff1a;"/><path d="M116.79,117.1l-3.4,3.2-1.2-.4,3-2.7,1.6-.1m2.5-1l-2.6,.2-1.6,.1h-.3l-.2,.2-3,2.7-1.1,1,1.4,.5,1.2,.4,.5,.2,.4-.4,3.4-3.2,1.9-1.7h0Z" style="fill:#1a1a1a;"/></g><g><polygon points="128.09 119.4 129.19 116.5 130.79 117.4 129.49 121.3 128.09 119.4" style="fill:#ffff1a;"/><path d="M129.39,117.2l.8,.4-.9,2.8-.7-1,.8-2.2m-.5-1.3l-.4,.9-.8,2.2-.2,.5,.3,.4,.7,1,1,1.3,.5-1.6,.9-2.8,.2-.7-.7-.3-.8-.4-.7-.5h0Z" style="fill:#1a1a1a;"/></g><g><polygon points="116.29 111.2 119.09 110.4 120.19 111.9 116.49 113.1 116.29 111.2" style="fill:#ffad1d;"/><path d="M118.99,111l.5,.7-2.5,.8-.1-.9,2.1-.6m.3-1.1l-.6,.2-2.1,.6-.7,.2,.1,.8,.1,.9,.1,1.1,1.1-.3,2.5-.8,1.1-.4-.7-1-.5-.7-.4-.6h0Z" style="fill:#1a1a1a;"/></g><g><polygon points="118.19 98 119.59 96.7 121.89 98.4 121.39 100.1 118.19 98" style="fill:#ffff1a;"/><path d="M119.59,97.3l1.8,1.3-.2,.8-2.2-1.5,.6-.6m-.1-1.2l-.5,.5-.7,.7-.8,.8,.9,.6,2.2,1.5,1,.7,.3-1.2,.2-.8,.3-.7-.5-.4-1.8-1.3-.6-.4h0Z" style="fill:#1a1a1a;"/></g></g></svg>